<?xml version='1.0' encoding='utf-8'?>
<svg xmlns="http://www.w3.org/2000/svg" viewBox="60 105 285 78" fill="none"><defs /><path d="M147.48 178.091V175.591H158.747C159.343 175.591 159.744 175.19 159.744 174.488C159.744 173.787 159.354 173.375 158.747 173.375H150.865C149.694 173.375 148.74 173.011 148.028 172.336C147.232 171.582 147 170.627 147 169.789C147 168.95 147.232 167.969 148.028 167.215C148.74 166.524 149.694 166.16 150.865 166.16H162.164V168.66H150.891C150.306 168.66 149.895 169.066 149.895 169.757C149.895 170.448 150.295 170.881 150.891 170.881H158.774C159.939 170.881 160.914 171.239 161.621 171.92C162.417 172.674 162.638 173.629 162.638 174.467C162.638 175.306 162.406 176.276 161.626 177.041C160.919 177.732 159.944 178.096 158.774 178.096H147.485L147.48 178.091Z" fill="#26403C" />
<path d="M173.405 178.091V168.655H167.511V166.154H182.363V168.655H176.432V178.091H173.405Z" fill="#26403C" />
<path d="M187.657 166.16H190.551V170.785C190.551 172.426 191.189 174.119 192.903 175.026C193.657 175.427 194.485 175.596 195.434 175.596C196.383 175.596 197.253 175.427 198.022 175.026C199.757 174.119 200.395 172.442 200.395 170.785V166.16H203.29V170.828C203.29 172.078 203.042 173.386 202.356 174.578C201.123 176.688 198.813 178.096 195.523 178.096C192.233 178.096 189.85 176.703 188.6 174.588C187.894 173.391 187.651 172.088 187.651 170.833V166.165L187.657 166.16Z" fill="#26403C" />
<path d="M209.021 178.091V166.16H218.359C221.027 166.16 222.915 167.341 223.89 169.04C224.459 170.01 224.655 171.081 224.655 172.088C224.655 173.096 224.459 174.188 223.89 175.174C222.92 176.867 221.053 178.091 218.359 178.091H209.021ZM211.916 175.596H218.338C219.366 175.596 220.131 175.316 220.769 174.704C221.502 174.013 221.755 173.117 221.755 172.173C221.755 171.229 221.502 170.258 220.769 169.557C220.131 168.955 219.361 168.665 218.338 168.665H211.916V175.601V175.596Z" fill="#26403C" />
<path d="M229.942 178.091V166.16H232.837V178.091H229.942Z" fill="#26403C" />
<path d="M238.136 172.078C238.136 171.065 238.331 170.01 238.9 169.045C239.886 167.346 241.763 166.165 244.442 166.165H249.071C251.765 166.165 253.642 167.357 254.628 169.071C255.187 170.058 255.377 171.144 255.377 172.167C255.377 173.191 255.192 174.251 254.623 175.216C253.648 176.914 251.744 178.096 249.076 178.096H244.447C241.779 178.096 239.892 176.904 238.906 175.216C238.31 174.198 238.141 173.127 238.141 172.078H238.136ZM244.458 175.596H249.055C250.083 175.596 250.864 175.306 251.502 174.694C252.224 173.998 252.488 173.069 252.488 172.109C252.488 171.149 252.224 170.242 251.491 169.551C250.853 168.95 250.083 168.66 249.055 168.66H244.458C243.44 168.66 242.654 168.95 242.022 169.551C241.31 170.232 241.036 171.149 241.036 172.094V172.173C241.036 173.106 241.31 174.024 242.022 174.704C242.66 175.306 243.44 175.596 244.458 175.596Z" fill="#26403C" />
<path d="M110.122 110.983C98.2698 112.238 74.575 125.841 67.552 135.547C60.5659 145.199 64.0826 156.55 76.3624 158.216C91.9269 160.326 115.453 147.994 120.984 132.878C124.469 123.357 123.504 109.57 110.122 110.983ZM73.4572 148.495C64.3726 134.291 86.4013 118.821 98.8023 117.566C106.258 116.811 114.04 119.417 116.492 127.102C122.571 146.175 83.8599 164.751 73.4625 148.495H73.4572Z" fill="#26403C" stroke="#26403C" stroke-width="1.14346" stroke-miterlimit="10" />
<path d="M281.607 133.263C275.918 123.389 254.601 109 243.001 110.055C240.976 110.239 238.773 111.785 238.409 113.858C237.75 117.592 242.289 124.011 243.697 127.835C244.894 131.084 245.759 134.761 246.07 138.221C246.66 144.814 244.045 153.696 253.029 154.994C264.081 156.592 294.145 150.357 281.601 133.257L281.607 133.263ZM275.633 138.384C274.636 145.347 267.086 149.656 260.617 150.357C245.98 151.95 247.963 141.554 246.397 130.916C245.553 125.187 242.331 117.16 251.374 116.548C262.668 115.788 277.399 125.979 275.628 138.384H275.633Z" fill="#26403C" stroke="#26403C" stroke-width="1.14346" stroke-miterlimit="10" />
<path d="M335.777 155.954C333.467 153.237 328.859 151.66 325.996 149.192C318.557 142.773 316.716 134.761 313.748 125.514C310.89 116.611 305.291 114.612 301.068 123.784C297.076 132.45 296.401 136.549 290.022 144.081C287.391 147.187 280.294 153.169 280.167 157.383C280.067 160.722 283.468 162.942 286.03 161.007C289.8 158.158 288.192 150.431 293.412 146.786C298.995 142.883 311.122 145.895 317.296 147.873C326.096 150.695 324.446 155.067 329.186 161.381C334.195 168.059 340.364 161.339 335.782 155.954H335.777ZM308.138 144.561C305.971 144.213 299.976 143.131 298.284 142.066C294.983 139.993 297.878 135.525 299.428 133.231C300.857 131.121 303.414 128.009 305.844 127.577C309.72 126.881 313.658 132.835 315.398 136.137C320.502 145.821 315.704 145.769 308.143 144.561H308.138Z" fill="#26403C" stroke="#26403C" stroke-width="1.14346" stroke-miterlimit="10" />
<path d="M193.835 133.521C190.682 131.432 187.46 127.935 185.604 124.823C183.195 120.783 181.049 110.672 174.326 111.911C172.639 112.223 171.21 113.942 170.361 115.182C166.686 120.525 165.605 126.274 160.275 131.021C157.918 133.126 151.992 135.678 150.927 138.057C149.319 141.66 152.793 144.186 156.51 142.62C159.073 141.544 159.906 138.959 161.741 137.398C166.47 133.373 183.079 132.319 188.483 135.235C191.889 137.071 192.564 141.749 196.097 143.606C199.719 145.515 203.863 142.831 202.213 139.228C200.968 136.512 196.439 135.251 193.84 133.521H193.835ZM179.182 132.556C176.272 132.878 168.49 133.553 165.975 132.946C161.461 131.854 165.526 126.712 167.066 124.787C168.853 122.55 171.785 119.56 175.08 119.401C179.13 119.211 183.094 123.204 184.908 126.11C188.267 131.49 184.218 132.007 179.177 132.561L179.182 132.556Z" fill="#26403C" stroke="#26403C" stroke-width="1.14346" stroke-miterlimit="10" />
<path d="M147.325 143.907C146.286 143.242 145.285 142.519 144.293 141.792C143.65 141.317 142.991 140.874 142.3 140.473C141.357 139.924 138.351 138.801 137.856 138.279C136.98 137.35 137.439 136.364 138.383 135.705C139.965 134.597 143.45 133.674 145.443 132.624C148.775 130.868 153.794 127.466 151.859 123.041C149.55 117.761 139.105 119.744 134.882 121.406C131.323 122.809 129.209 124.676 127.574 128.094C125.671 132.076 121.843 145.468 122.291 149.54C122.686 153.126 126.551 153.211 127.073 149.962C127.537 147.092 125.112 144.777 126.715 141.428C128.945 136.765 137.276 139.376 140.755 141.29C141.167 141.517 141.567 141.755 141.958 142.003C141.947 142.003 141.937 142.003 141.926 142.008C145.279 144.429 146.692 147.024 147.199 147.762C148.933 150.283 149.692 153.981 152.376 155.663C158.102 159.25 162.346 152.884 157.316 148.833C154.986 146.955 151.422 146.386 148.754 144.84L147.32 143.922L147.325 143.907ZM129.678 136.855C124.975 136.77 127.79 130.108 129.214 127.788C131.075 124.75 133.616 122.94 137.249 122.545C143.961 121.812 148.865 126.759 142.632 131.981C140.038 134.154 133.031 136.918 129.683 136.86L129.678 136.855Z" fill="#26403C" stroke="#26403C" stroke-width="1.14346" stroke-miterlimit="10" />
<path d="M238.852 134.249C236.775 134.386 236.928 137.271 236.121 138.637C235.114 140.346 233.39 141.043 231.45 140.826C225.961 140.214 219.412 128.632 215.78 124.655C214.198 122.925 211.635 120.762 209.136 121.158C203.938 121.986 205.213 129.233 206.01 132.83C206.6 135.494 207.576 139.397 208.493 141.923C208.936 143.147 209.811 145.515 211.577 144.634C213.57 143.643 209.442 139.065 208.815 137.656C207.222 134.08 205.946 126.026 211.973 126.617C216.866 127.097 223.746 137.709 226.863 141.465C230.131 145.405 235.989 152.789 239.438 144.302C240.202 142.414 242.464 134.006 238.858 134.244L238.852 134.249Z" fill="#26403C" stroke="#26403C" stroke-width="1.14346" stroke-miterlimit="10" />
</svg>